<?xml version="1.0" standalone="no"?>
<!DOCTYPE svg PUBLIC "-//W3C//DTD SVG 20010904//EN"
 "http://www.w3.org/TR/2001/REC-SVG-20010904/DTD/svg10.dtd">
<svg version="1.0" xmlns="http://www.w3.org/2000/svg"
 width="1604.000000pt" height="894.000000pt" viewBox="0 0 1604.000000 894.000000"
 preserveAspectRatio="xMidYMid meet">
<metadata>
Created by potrace 1.15, written by Peter Selinger 2001-2017
</metadata>
<g transform="translate(0.000000,894.000000) scale(0.100000,-0.100000)"
fill="#000000" stroke="none">
<path d="M7195 7765 c-562 -176 -2807 -880 -3149 -986 -104 -32 -193 -62 -197
-66 -3 -5 11 -233 32 -508 21 -275 38 -515 39 -532 l0 -33 -1435 0 -1435 0 0
-125 0 -125 1675 0 1675 0 0 28 c0 16 -16 239 -35 497 -20 257 -34 469 -33
470 2 1 172 55 378 120 586 183 1570 492 1955 613 193 61 515 163 718 226 202
64 375 116 385 116 17 0 223 -64 1062 -328 245 -77 717 -226 1050 -331 333
-104 765 -240 960 -301 195 -61 358 -114 361 -118 5 -6 -37 -623 -64 -934 l-5
-58 1679 0 1679 0 0 125 0 125 -1438 2 -1437 3 39 532 c22 293 38 535 35 537
-2 2 -517 165 -1144 361 -627 196 -1506 471 -1952 611 -447 140 -821 254 -830
253 -10 0 -265 -79 -568 -174z"/>
<path d="M7014 7091 c-103 -47 -167 -145 -167 -256 0 -108 66 -212 159 -251
l34 -14 2 -315 3 -316 285 -113 285 -113 3 -162 2 -161 178 0 177 1 258 201
257 202 0 318 0 318 43 21 c54 27 103 74 130 124 17 32 22 57 22 125 0 102
-19 146 -91 209 -106 93 -253 93 -359 -1 -146 -128 -121 -362 48 -449 l37 -19
0 -283 0 -282 -256 -200 c-141 -110 -260 -201 -265 -203 -5 -2 -9 128 -9 306
l0 309 24 11 c14 6 44 28 67 49 120 108 120 298 -1 406 -59 54 -102 70 -185
71 -165 0 -286 -132 -273 -298 8 -98 61 -177 150 -222 l48 -24 0 -90 c0 -50
-4 -90 -8 -90 -4 0 -95 35 -202 78 l-195 78 -3 257 -2 256 39 21 c58 29 108
85 131 147 69 184 -63 373 -260 373 -42 0 -80 -7 -106 -19z m178 -180 c28 -25
33 -36 33 -76 0 -40 -5 -51 -33 -76 -69 -62 -172 -17 -172 76 0 93 103 138
172 76z m1263 -115 c35 -15 65 -59 65 -96 0 -67 -72 -121 -136 -100 -94 31
-101 156 -10 196 39 17 40 17 81 0z m-721 -350 c70 -29 89 -110 39 -166 -39
-43 -87 -49 -133 -18 -69 46 -62 151 13 183 40 18 41 18 81 1z"/>
<path d="M6083 6547 c-108 -40 -183 -147 -183 -262 0 -106 73 -220 164 -254
l26 -11 0 -197 1 -198 137 -117 137 -118 128 0 c70 0 127 1 127 3 0 1 -81 72
-179 157 l-179 155 -1 157 -1 156 45 22 c91 44 144 134 145 246 0 159 -118
275 -279 273 -31 0 -70 -6 -88 -12z m163 -191 c70 -70 24 -176 -77 -176 -46 0
-99 56 -99 105 0 29 8 45 34 71 26 26 42 34 71 34 29 0 45 -8 71 -34z"/>
<path d="M9280 6551 c-75 -24 -145 -87 -176 -158 -27 -61 -23 -167 9 -229 28
-56 86 -113 135 -133 l32 -13 0 -153 0 -153 -182 -159 -181 -158 126 -3 127
-3 140 121 140 121 0 194 0 195 38 19 c85 43 152 152 152 246 0 93 -69 203
-154 247 -44 23 -161 34 -206 19z m131 -177 c94 -48 55 -194 -52 -194 -100 0
-141 139 -56 190 39 24 68 25 108 4z"/>
<path d="M4912 6325 c-149 -46 -225 -195 -182 -351 21 -74 106 -157 184 -179
75 -22 142 -14 217 26 l56 30 204 -128 204 -129 3 -102 3 -102 84 0 85 0 0
149 0 149 -249 157 -248 157 -5 71 c-6 89 -31 140 -94 196 -74 65 -169 85
-262 56z m123 -169 c35 -15 65 -59 65 -96 0 -91 -116 -136 -181 -71 -52 52
-34 137 35 167 39 17 40 17 81 0z"/>
<path d="M10462 6325 c-120 -37 -195 -142 -193 -268 l0 -52 -247 -156 -247
-156 -3 -151 -3 -152 86 0 85 0 0 103 0 102 207 129 c206 128 206 129 232 112
117 -77 248 -70 347 17 70 61 89 106 89 207 0 102 -19 146 -91 209 -74 65
-169 85 -262 56z m123 -169 c35 -15 65 -59 65 -96 0 -91 -116 -136 -181 -71
-52 52 -34 137 35 167 39 17 40 17 81 0z"/>
<path d="M870 4175 l0 -1145 6915 0 6915 0 0 1145 0 1145 -6915 0 -6915 0 0
-1145z"/>
<path d="M1050 2815 l0 -125 1670 0 1670 0 355 -242 c195 -134 507 -346 692
-473 537 -366 981 -669 1676 -1144 429 -292 654 -441 664 -437 14 6 323 216
1663 1131 162 111 613 418 1001 683 l707 482 1671 0 1671 0 0 125 0 125 -1898
0 -1899 0 -199 -136 c-799 -548 -1949 -1335 -2301 -1576 -267 -182 -428 -286
-435 -282 -14 8 -912 623 -1973 1349 -352 241 -708 485 -792 542 l-151 103
-1896 0 -1896 0 0 -125z"/>
<path d="M6590 2900 c0 -39 -1 -41 -101 -107 -84 -56 -103 -65 -117 -55 -75
53 -109 67 -172 70 -123 7 -210 -38 -265 -138 -26 -48 -30 -65 -30 -135 0 -89
19 -138 76 -194 56 -57 105 -76 194 -76 70 0 87 4 134 30 53 29 102 83 123
135 6 14 13 50 17 80 l6 55 153 103 152 103 0 84 0 85 -85 0 -85 0 0 -40z
m-339 -289 c23 -23 29 -38 29 -71 0 -35 -6 -48 -35 -77 -32 -32 -39 -35 -78
-30 -135 18 -124 206 11 207 35 0 49 -6 73 -29z"/>
<path d="M7750 2810 c0 -71 -1 -130 -3 -130 -2 0 -157 -31 -346 -70 -188 -38
-344 -70 -346 -70 -3 0 -5 -67 -5 -148 l0 -148 -36 -13 c-138 -50 -207 -241
-138 -379 59 -120 195 -176 329 -138 81 24 157 100 181 181 33 114 -6 234 -97
301 -26 18 -52 34 -58 34 -7 0 -11 29 -11 85 0 80 1 85 23 90 12 3 121 25 242
50 121 25 230 47 243 50 l22 5 0 -394 0 -394 -23 -6 c-41 -10 -113 -82 -138
-138 -28 -64 -30 -163 -5 -221 25 -58 90 -122 148 -147 62 -27 171 -25 230 4
119 58 182 199 144 328 -19 67 -79 138 -141 168 l-45 22 0 525 c0 495 1 524
18 519 9 -3 100 -39 202 -80 l185 -74 3 -130 c3 -129 2 -130 -21 -136 -35 -8
-115 -83 -140 -130 -17 -33 -22 -58 -22 -126 0 -93 10 -121 68 -186 101 -116
308 -113 410 6 70 82 87 213 39 307 -24 46 -103 120 -139 129 l-23 6 0 187 0
186 -260 103 -261 102 -114 0 -115 0 0 -130z m743 -640 c69 -77 -10 -202 -109
-170 -45 15 -74 54 -74 100 0 99 116 143 183 70z m-1293 -127 c35 -40 38 -75
10 -121 -37 -60 -102 -68 -156 -19 -28 25 -36 41 -37 70 -1 46 28 88 73 103
46 15 76 7 110 -33z m696 -492 c37 -22 59 -70 50 -107 -4 -15 -20 -39 -36 -55
-64 -64 -170 -20 -170 71 0 51 12 75 48 94 37 21 71 20 108 -3z"/>
<path d="M8780 2855 l0 -84 153 -105 152 -104 2 -46 c10 -220 282 -335 451
-190 196 167 80 484 -176 484 -73 0 -151 -29 -186 -68 l-18 -21 -104 70 c-103
69 -104 70 -104 109 l0 40 -85 0 -85 0 0 -85z m648 -240 c38 -32 48 -72 28
-118 -15 -37 -58 -67 -96 -67 -37 0 -81 30 -96 67 -42 100 80 188 164 118z"/>
</g>
</svg>
