<svg xmlns="http://www.w3.org/2000/svg" viewBox="739.084 125.553 100.63 99.511">
  <defs>
    <style>
      .cls-1 {
        fill: #008cf4;
      }
    </style>
  </defs>
  <path id="Path_30" data-name="Path 30" class="cls-1" d="M-5219,176h0l-5.9-48.2a2.437,2.437,0,0,0-1.5-2,2.486,2.486,0,0,0-2.5.2l-42.6,29.6c-.1,0-.1.1-.2.1l-41.1,28.5a2.544,2.544,0,0,0-1.1,2.4,2.649,2.649,0,0,0,1.6,2.1l95.5,36.2a2.532,2.532,0,0,0,2.5-.4,2.616,2.616,0,0,0,1-2.3L-5219,176Zm-86.9,9.7,36-25,46,17.4,5,40.5Z" transform="translate(6053)"/>
</svg>
